<?xml version="1.0" encoding="UTF-8" standalone="no"?>
<!-- Created with Inkscape (http://www.inkscape.org/) -->

<svg
   width="300mm"
   height="300mm"
   viewBox="0 0 300 300"
   version="1.1"
   id="svg1"
   inkscape:version="1.3.2 (091e20e, 2023-11-25, custom)"
   sodipodi:docname="logo.svg"
   inkscape:export-filename="logo.png"
   inkscape:export-xdpi="96"
   inkscape:export-ydpi="96"
   xmlns:inkscape="http://www.inkscape.org/namespaces/inkscape"
   xmlns:sodipodi="http://sodipodi.sourceforge.net/DTD/sodipodi-0.dtd"
   xmlns="http://www.w3.org/2000/svg"
   xmlns:svg="http://www.w3.org/2000/svg">
  <sodipodi:namedview
     id="namedview1"
     pagecolor="#505050"
     bordercolor="#eeeeee"
     borderopacity="1"
     inkscape:showpageshadow="0"
     inkscape:pageopacity="0"
     inkscape:pagecheckerboard="true"
     inkscape:deskcolor="#505050"
     inkscape:document-units="mm"
     inkscape:zoom="1.3843855"
     inkscape:cx="587.62534"
     inkscape:cy="896.06544"
     inkscape:window-width="1920"
     inkscape:window-height="991"
     inkscape:window-x="-9"
     inkscape:window-y="274"
     inkscape:window-maximized="1"
     inkscape:current-layer="layer1" />
  <defs
     id="defs1" />
  <g
     inkscape:groupmode="layer"
     id="layer2"
     inkscape:label="Layer 2">
    <path
       style="fill:#f7b52d;fill-opacity:1;stroke:#f7b52d;stroke-width:7.55906;stroke-linecap:round;stroke-dasharray:none;stroke-opacity:1"
       d="M 216.70264,763.29432 C 169.90121,726.4885 132.51613,664.5695 114.93836,594.74736 c -5.38799,-21.40204 -6.43317,-33.5028 -6.44873,-74.66102 -0.0165,-43.64931 0.83561,-52.49775 7.65178,-79.45764 37.70215,-149.1225 158.65947,-255.87539 321.35782,-283.61968 45.95575,-7.83665 119.66947,-6.4263 167.66535,3.20791 135.76027,27.25114 267.49502,109.85825 361.93389,226.95846 22.67712,28.11867 62.13333,87.28771 78.51473,117.74177 l 12.0451,22.3926 H 966.43409 875.2099 l -4.92201,-9.07351 C 848.98805,478.97089 802.37719,423.38295 759.08505,385.6162 686.91998,322.66158 604.29647,285.06838 517.37816,275.64102 354.31586,257.95493 209.19585,358.69205 183.16642,507.63885 c -13.40883,76.72866 9.64445,154.83208 60.87045,206.2262 38.47203,38.59832 79.63912,55.50379 127.85246,52.50324 42.14092,-2.62263 79.86656,-26.52793 97.83823,-61.99632 6.97243,-13.76065 8.6335,-21.0277 9.43139,-41.26189 1.21195,-30.73441 -5.57677,-51.08744 -22.86377,-68.54726 -15.74969,-15.90713 -29.51175,-22.17619 -48.91759,-22.2835 -26.98947,-0.14927 -44.79777,15.37623 -49.33953,43.01483 l 17.80619,33.34284 -18.56519,-19.11343 -1.52507,-14.90321 c -5.58679,-54.595 70.97544,-68.95142 112.35761,-21.81973 20.90207,23.80612 31.40957,62.5234 25.68949,94.65872 -4.26199,23.94374 -18.65576,51.89332 -36.86973,71.59298 l -15.48043,16.74314 -104.42837,-0.002 -104.42839,-0.002 z"
       id="path28"
       transform="scale(0.26458333)"
       sodipodi:nodetypes="cssssssscccsssssssssssccsssscccc" />
    <path
       style="fill:#d99f28;fill-opacity:1;stroke:#d99f28;stroke-width:7.55906;stroke-linecap:round;stroke-dasharray:none;stroke-opacity:1"
       d="M 63.076532,769.73495 C 47.652386,730.36667 35.690587,686.17467 29.204062,644.59556 26.320434,626.11129 25.552927,609.11649 25.605584,564.91497 25.679058,503.23841 28.148738,481.7186 40.871767,431.89159 92.238784,230.72376 257.58141,73.654913 459.69572,34.025703 503.4436,25.447917 513.22807,24.58601 566.95806,24.577036 634.85072,24.565697 668.247,29.30912 727.34079,47.356918 961.90031,118.99359 1122.131,345.69962 1110.3621,589.28348 l -1.2964,34.58397 -10.7331,-27.43315 C 1024.2269,407.02556 893.71041,259.87077 728.36233,186.91896 683.34915,167.05908 635.63574,152.96655 585.34589,144.67793 c -31.8713,-5.25294 -117.30344,-5.2845 -148.30401,-0.0548 -85.83429,14.47999 -162.34733,50.56288 -219.45257,103.49194 -78.98019,73.20425 -121.847879,168.25844 -122.139508,270.83032 -0.180928,63.63638 13.729958,116.30474 45.502188,172.27694 18.67695,32.90263 32.86526,50.76414 58.41019,73.53197 l 11.89198,10.59915 H 138.26599 65.27781 Z"
       id="path48"
       transform="scale(0.26458333)"
       sodipodi:nodetypes="sssssssscsssssssscccs" />
    <path
       style="fill:#f8bc42;fill-opacity:1;stroke:#f8bc42;stroke-width:7.55906;stroke-linecap:round;stroke-dasharray:none;stroke-opacity:1"
       d="m 329.95937,751.99654 c -32.75683,-9.16809 -56.56759,-23.77348 -80.94762,-49.65284 -16.47744,-17.49075 -23.32814,-27.29383 -33.93121,-48.55423 -57.7948,-115.88531 -7.89463,-261.51636 112.83574,-329.30524 128.65198,-72.23678 298.38012,-42.74135 428.83339,74.52287 30.0727,27.0323 70.26353,72.89766 88.89581,101.44698 9.50494,14.56392 31.3894,57.11709 39.71837,77.23021 l 3.17272,7.6616 H 795.70953 702.8825 l -6.05372,-11.99236 c -15.47714,-30.66005 -48.96814,-74.35905 -73.36879,-95.73146 -78.21855,-68.51124 -174.43814,-89.04759 -256.08105,-54.65589 -22.23234,9.36526 -41.48284,22.82831 -59.285,41.46163 -31.40879,32.87521 -46.52382,69.84584 -46.51248,113.76725 0.007,27.19675 4.05191,45.14082 15.32292,67.97609 16.00914,32.4348 40.92755,54.26293 73.2248,64.14373 36.76856,11.24874 78.01023,-4.97799 93.48982,-36.78399 6.97448,-14.33051 7.75936,-39.08876 1.68669,-53.20504 -13.71037,-31.87066 -55.25793,-41.98823 -70.61589,-16.80037 -1.13097,1.85485 -2.75228,6.6933 -3.14019,11.39229 -0.65067,7.88211 6.43371,24.23899 14.73013,27.92294 3.18833,-3.37219 -10.35028,-43.72318 -5.35543,-48.5091 9.96822,-9.55121 21.07919,-12.72454 35.24703,-10.06664 34.21681,6.41911 58.86982,47.74675 51.99122,87.15665 -6.10754,34.9922 -31.83579,64.951 -66.77491,77.75488 -15.49221,5.67728 -55.56658,7.25945 -71.42828,2.82004 z"
       id="path49"
       transform="scale(0.26458333)"
       sodipodi:nodetypes="ssssssscccssssssssssscsssss" />
    <path
       style="fill:#fcedbe;fill-opacity:1;stroke:#fcedbe;stroke-width:7.55905522;stroke-linecap:round;stroke-dasharray:none;stroke-opacity:1"
       d="m 362.64885,701.43783 c -38.01288,-5.09183 -74.00703,-41.60467 -86.24581,-87.48865 -5.27456,-19.77467 -4.73508,-53.60459 1.18918,-74.57287 6.83023,-24.17481 19.29566,-46.07557 36.92257,-64.87002 23.69614,-25.26568 50.97231,-41.60926 84.90972,-50.877 23.64204,-6.45624 73.95958,-6.54771 99.4415,-0.18076 52.37583,13.0867 106.97044,47.07552 142.49133,88.71045 26.58537,31.16137 52.39207,76.11372 66.35395,115.58107 l 5.24,14.81242 H 609.04008 505.12884 l -2.36886,-9.40759 c -8.67755,-34.46166 -37.82564,-66.98138 -69.33927,-77.3599 -15.75111,-5.18739 -42.63248,-3.7154 -56.20677,3.07779 -35.49827,17.76496 -45.35037,64.99048 -18.68572,89.5691 18.74927,17.28246 41.46135,14.9909 51.87798,-5.23432 5.09232,-9.88738 1.14027,-23.5431 -8.21336,-28.38005 -11.86728,-6.13681 -17.40408,-1.16447 -10.10992,9.07925 5.27888,7.4135 5.31618,8.44026 0.30661,8.44026 -4.8528,0 -10.33131,-7.3666 -10.33131,-13.89186 0,-2.64567 2.68746,-7.49775 5.97212,-10.78241 4.7644,-4.7644 7.75985,-5.97057 14.81242,-5.96448 21.32812,0.0184 38.42135,22.93551 35.83051,48.03835 -3.59481,34.83035 -36.23913,57.03047 -76.02442,51.70122 z"
       id="path50"
       transform="scale(0.26458333)" />
    <path
       style="fill:#346163;fill-opacity:1;stroke:#346163;stroke-width:7.55906;stroke-linecap:round;stroke-dasharray:none;stroke-opacity:1"
       d="m 416.11114,1088.8236 c -30.05598,-8.8939 -59.70646,-20.4924 -88.50941,-34.6226 l -25.41564,-11.6372 264.77197,0.7562 265.98505,-0.5208 -30.08512,13.1195 c -26.58843,11.5946 -53.19542,23.5062 -85.30261,33.5808 l -17.79634,5.5841 -129.73634,0.442 -129.73635,0.442 z"
       id="path51"
       transform="scale(0.26458333)"
       sodipodi:nodetypes="cscccsscccc" />
    <path
       style="fill:#3b6e70;fill-opacity:1;stroke:#3b6e70;stroke-width:7.55905522;stroke-linecap:round;stroke-dasharray:none;stroke-opacity:1"
       d="m 262.3723,1016.1881 c -33.33307,-22.71514 -54.45932,-40.55339 -85.33761,-72.05598 l -26.25297,-26.78377 208.76185,-0.52043 c 114.81904,-0.28623 302.18513,-0.28623 416.3691,0 l 207.60725,0.52043 -24.02728,24.92133 c -28.29468,29.34752 -56.03611,52.80422 -88.32076,74.67942 l -23.36869,15.834 H 567.26379 286.72436 Z"
       id="path52"
       transform="scale(0.26458333)" />
    <path
       style="fill:#4f7d7e;fill-opacity:1;stroke:#4f7d7e;stroke-width:7.55905522;stroke-linecap:round;stroke-dasharray:none;stroke-opacity:1"
       d="M 136.1781,897.42821 C 122.05244,880.18179 97.568401,841.17973 83.592444,813.66143 L 69.324855,785.56891 H 566.88792 c 273.65968,0 497.56308,0.4764 497.56308,1.05867 0,2.16913 -20.6206,42.05094 -29.7297,57.49946 -5.1936,8.8081 -16.8561,26.35789 -25.9166,38.99952 l -16.47362,22.98479 H 567.81054 143.29002 Z"
       id="path53"
       transform="scale(0.26458333)" />
    <path
       style="fill:#87b4b4;fill-opacity:1;stroke:#87b4b4;stroke-width:7.55905522;stroke-linecap:round;stroke-dasharray:none;stroke-opacity:1"
       d="m 466.21416,767.61203 c 15.71764,-17.39755 32.1251,-46.87843 37.4343,-67.26184 1.67111,-6.41581 3.03838,-19.74647 3.03838,-29.62369 v -17.95857 h 298.29145 c 253.28631,0 298.29141,0.42845 298.29141,2.83973 0,5.07142 -8.0797,42.7486 -12.3159,57.43148 -2.2695,7.86591 -7.9581,25.1045 -12.6414,38.30798 l -8.515,24.00633 H 764.50882 459.22024 Z"
       id="path54"
       transform="scale(0.26458333)" />
    <path
       style="fill:#99cccc;fill-opacity:1;stroke:#99cccc;stroke-width:7.55905522;stroke-linecap:round;stroke-dasharray:none;stroke-opacity:1"
       d="m 720.64466,637.7942 c 0.50028,-2.61704 -2.25751,-13.19004 -6.12842,-23.49555 l -7.03801,-18.7373 h 190.34228 190.34229 l 7.5535,21.25977 c 4.1544,11.69287 7.5534,22.26587 7.5534,23.49556 0,1.60311 -54.2658,2.23579 -191.76731,2.23579 H 719.73506 Z"
       id="path55"
       transform="scale(0.26458333)" />
    <path
       style="fill:#a3d1d1;fill-opacity:1;stroke:#a3d1d1;stroke-width:7.55905522;stroke-linecap:round;stroke-dasharray:none;stroke-opacity:1"
       d="m 899.14214,580.74893 c -0.96818,-2.52833 -5.48298,-12.64163 -10.03288,-22.47401 l -8.27256,-17.87706 h 91.51082 91.51078 l 8.2341,17.87706 c 4.5287,9.83238 8.8613,19.94568 9.6279,22.47401 l 1.3939,4.59696 h -91.10587 -91.10585 z"
       id="path56"
       transform="scale(0.26458333)" />
  </g>
  <g
     inkscape:label="Layer 1"
     inkscape:groupmode="layer"
     id="layer1">
    <path
       id="path2"
       style="fill:none;fill-opacity:0;stroke:#1f282b;stroke-width:4.92494;stroke-linecap:round"
       d="m 296.64804,149.93372 c 0,69.3594 -48.18787,127.46392 -112.91111,142.66107 -1.43471,7.4e-4 -66.49058,0.34156 -67.85888,-0.14367 C 51.460283,277.03452 3.5730027,219.07646 3.572998,149.93372 3.5729925,69.003287 69.180082,3.3962086 150.11052,3.3962097 c 80.93044,0 146.53753,65.6070783 146.53752,146.5375103 z"
       sodipodi:nodetypes="sccsss" />
    <path
       style="fill:none;fill-opacity:0;stroke:#1f282b;stroke-width:2.5;stroke-linecap:round;stroke-dasharray:none;stroke-opacity:1"
       d="M 293.9485,171.25 H 132.23185"
       id="path10" />
    <path
       style="display:inline;fill:none;fill-opacity:0;stroke:#1f282b;stroke-width:2.5;stroke-linecap:round;stroke-dasharray:none;stroke-opacity:1"
       d="m 105.32527,164.00281 c 0.20468,0.01 0.64448,0.34288 0.85472,0.4661 0.21017,0.12359 0.24134,0.46022 0.40004,0.7005 0.15872,0.24026 -0.46809,-0.86549 -0.13612,0.37547 0.0616,1.40994 0.10076,1.3322 -0.0198,1.68694 -0.12055,0.35442 -0.33453,0.7013 -0.64244,0.98996 -0.30789,0.28866 -0.71047,0.51807 -1.18214,0.63697 -0.47134,0.11903 -1.01237,0.12583 -1.56993,-0.0163 -0.55755,-0.14216 -1.13116,-0.43493 -1.64611,-0.88642 -0.51495,-0.45148 -0.97012,-1.06309 -1.28241,-1.80092 -0.312507,-0.73829 -0.480157,-1.60352 -0.433217,-2.51693 0.0472,-0.91298 0.31189,-1.87342 0.827047,-2.7634 0.51537,-0.88953 1.28399,-1.70612 2.28064,-2.31292 0.99655,-0.60646 2.22292,-0.99956 3.58224,-1.05536 1.35976,-0.056 2.85225,0.22957 4.31328,0.92635 1.46107,0.69717 2.88818,1.81047 4.07221,3.31921 1.18415,1.5084 2.1201,3.41582 2.59845,5.58473 0.47849,2.1686 0.49228,4.59974 -0.10958,7.03963 -0.60198,2.4402 -1.82699,4.88538 -3.70539,6.99856 -1.8784,2.11319 -4.41635,3.88668 -7.47315,4.96474 -3.05689,1.0784 -6.635195,1.45026 -10.406182,0.8375 -3.770671,-0.61266 -7.731012,-2.22225 -11.392069,-4.92607 -3.660749,-2.7037 -7.012868,-6.51271 -9.491492,-11.25239 -2.478943,-4.73978 -4.068709,-10.41645 -4.263942,-16.54275 -0.194912,-6.12619 1.024502,-12.69948 3.942798,-18.95079 2.918609,-6.25121 7.555194,-12.16722 13.818354,-16.81863 6.262743,-4.65121 14.165283,-8.01441 23.136243,-9.20837 8.97128,-1.19382 19.01267,-0.18722 29.07443,3.58631 10.06164,3.77387 20.12929,10.34717 28.80701,19.70662 8.67768,9.35943 17.58965,21.79975 21.25122,37.5813"
       title="pow(e,((log((1+sqrt(5))/2,e) /(pi/2))*x))"
       id="path15"
       inkscape:label="verde"
       sodipodi:nodetypes="ccsccscsssccccccccscccccccccsc" />
    <path
       style="display:inline;fill:none;fill-opacity:0;stroke:#1f282b;stroke-width:2.5;stroke-linecap:round;stroke-dasharray:none;stroke-opacity:1"
       d="m 104.21287,163.46708 c 0.3326,0.0163 1.55194,0.92883 1.89358,1.12906 0.34153,0.20083 0.66669,0.50079 0.92458,0.89125 0.25792,0.39042 0.44718,0.87191 0.51997,1.40621 0.0726,0.53431 0.0265,1.1217 -0.16939,1.69816 -0.1959,0.57593 -0.54362,1.13961 -1.04397,1.60868 -0.50032,0.46907 -1.15451,0.84186 -1.92098,1.03508 -0.76592,0.19342 -1.6451,0.20447 -2.55113,-0.0265 -0.90602,-0.23101 -1.83814,-0.70676 -2.674935,-1.44043 -0.8368,-0.73366 -1.57645,-1.72752 -2.08392,-2.9265 -0.50782,-1.19972 -0.78025,-2.60572 -0.70398,-4.09001 0.0766,-1.48359 0.50682,-3.04431 1.34395,-4.49052 0.83748,-1.44549 2.086488,-2.77245 3.706045,-3.7585 1.6194,-0.9855 3.61225,-1.62428 5.82115,-1.71496 2.20961,-0.091 4.6349,0.37305 7.00908,1.50532 2.37423,1.1329 4.69329,2.94201 6.61734,5.39372 1.92424,2.45115 3.44516,5.5507 4.22248,9.07518 0.77754,3.52398 0.79995,7.47458 -0.17807,11.4394 -0.97822,3.96533 -2.96886,7.93874 -6.02126,11.37266 -3.0524,3.43393 -7.17657,6.31586 -12.14387,8.0677 -4.96744,1.7524 -10.782195,2.35668 -16.910045,1.36094 -6.12734,-0.99557 -12.562898,-3.61116 -18.512116,-8.00486 -5.948717,-4.39352 -11.395911,-10.58316 -15.423675,-18.28514 -4.028282,-7.70214 -6.611652,-16.92673 -6.928905,-26.88197 -0.316732,-9.95506 1.664815,-20.63665 6.407046,-30.79503 4.74274,-10.15822 12.277191,-19.771731 22.454826,-27.330271 10.176954,-7.55822 23.018589,-13.02342 37.596399,-14.96361 14.57833,-1.93995 30.89559,-0.30423 47.24595,5.82776 16.35017,6.13254 32.7101,16.81415 46.81139,32.023261 14.10123,15.20907 17.96154,20.55585 27.64465,43.23825"
       id="path16"
       sodipodi:nodetypes="cccccsccssccccccccscccccccccsc" />
    <path
       style="display:inline;fill:none;fill-opacity:0;stroke:#1f282b;stroke-width:2.5;stroke-linecap:round;stroke-dasharray:none;stroke-opacity:1"
       d="M 60.797009,206.56774 C 47.686771,197.99987 41.76902,188.474 36.192116,177.80972 30.614494,167.14521 27.03752,154.3727 26.598246,140.58853 c -0.438552,-13.78393 2.30513,-28.57383 8.871296,-42.639273 6.56687,-14.06522 16.999186,-27.37625 31.091292,-37.84192 14.09118,-10.46522 31.87189,-18.03242 52.056546,-20.71883 20.18538,-2.6861 42.77851,-0.42125 65.41747,8.0692 22.63869,8.4912 45.2909,23.28113 64.81577,44.33989 19.52478,21.058713 35.85186,48.441303 45.68677,80.376973"
       title="pow(e,((log((1+sqrt(5))/2,e) /(pi/2))*x))"
       id="path17"
       inkscape:label="verde"
       sodipodi:nodetypes="cccccccsc" />
    <path
       style="fill:none;fill-opacity:0;stroke:#1f282b;stroke-width:2.5;stroke-linecap:round;stroke-dasharray:none;stroke-opacity:1"
       d="M 288.25014,156.25 H 186.19732"
       id="path18" />
    <path
       style="fill:none;fill-opacity:0;stroke:#1f282b;stroke-width:2.5;stroke-linecap:round;stroke-dasharray:none;stroke-opacity:1"
       d="M 281.62044,141.25 H 231.92052"
       id="path19" />
    <path
       style="fill:none;fill-opacity:0;stroke:#1f282b;stroke-width:2.5;stroke-linecap:round;stroke-dasharray:none;stroke-opacity:1"
       d="M 283.73363,206.58281 H 16.924885"
       id="path20" />
    <path
       style="fill:none;fill-opacity:0;stroke:#1f282b;stroke-width:2.5;stroke-linecap:round;stroke-dasharray:none;stroke-opacity:1"
       d="M 226.47462,274.69815 H 73.228877"
       id="path21" />
    <path
       style="fill:none;fill-opacity:0;stroke:#1f282b;stroke-width:2.34428;stroke-linecap:round;stroke-dasharray:none;stroke-opacity:1"
       d="M 263.77686,241.20057 H 34.839624"
       id="path22" />
    <path
       style="fill:none;fill-opacity:0;stroke:#1f282b;stroke-width:5;stroke-linecap:round;stroke-dasharray:none;stroke-opacity:1"
       d="M 286.97381,241.20057 H 265.83185"
       id="path23" />
    <path
       style="fill:none;fill-opacity:0;stroke:#1f282b;stroke-width:5;stroke-linecap:round;stroke-dasharray:none;stroke-opacity:1"
       d="M 72.404403,274.69815 H 36.461948"
       id="path24" />
    <path
       style="fill:none;fill-opacity:0;stroke:#1f282b;stroke-width:5;stroke-linecap:round;stroke-dasharray:none;stroke-opacity:1"
       d="M 230.8134,292.5 H 70.773468"
       id="path25" />
    <path
       style="display:inline;fill:none;fill-opacity:0;stroke:#1f282b;stroke-width:2.5;stroke-linecap:round;stroke-dasharray:none;stroke-opacity:1"
       d="m 104.23306,163.36114 c 0.46053,0.0225 0.95596,0.16335 1.429,0.4406 0.47288,0.27808 0.92311,0.6934 1.28018,1.23403 0.35712,0.54059 0.61918,1.20726 0.71996,1.94706 0.10057,0.73983 0.0367,1.55313 -0.23454,2.3513 -0.27124,0.79744 -0.75269,1.57792 -1.44549,2.22741 -0.69275,0.64948 -1.59856,1.16566 -2.65982,1.43318 -1.06051,0.26782 -2.27783,0.28312 -3.532337,-0.0367 -1.254489,-0.31986 -2.545109,-0.9786 -3.703749,-1.99445 -1.15863,-1.01583 -2.18277,-2.39195 -2.88542,-4.05207 -0.70314,-1.66115 -1.08034,-3.60792 -0.97474,-5.66309 0.10609,-2.05421 0.70175,-4.2152 1.86086,-6.21765 1.15958,-2.00144 2.88898,-3.83877 5.13144,-5.20407 2.242236,-1.36454 5.001566,-2.24901 8.060036,-2.37456 3.05946,-0.126 6.41756,0.51653 9.70488,2.08429 3.28741,1.56863 6.4984,4.07355 9.16247,7.46822 2.66434,3.3939 4.77023,7.68559 5.84651,12.56564 1.07661,4.87935 1.10763,10.34942 -0.24655,15.83917 -1.35446,5.49045 -7.55685,16.39779 -14.0131,20.91594"
       title="pow(e,((log((1+sqrt(5))/2,e) /(pi/2))*x))"
       id="path27"
       inkscape:label="verde"
       sodipodi:nodetypes="cccccsccscccccccccc" />
  </g>
</svg>
