<?xml version="1.0" encoding="UTF-8" standalone="no"?>
<svg
   version="1.1"
   id="Layer_1"
   x="0px"
   y="0px"
   width="100%"
   viewBox="0 0 512 512"
   enable-background="new 0 0 512 512"
   xml:space="preserve"
   sodipodi:docname="calendar.svg"
   inkscape:version="1.3.2 (091e20e, 2023-11-25, custom)"
   xmlns:inkscape="http://www.inkscape.org/namespaces/inkscape"
   xmlns:sodipodi="http://sodipodi.sourceforge.net/DTD/sodipodi-0.dtd"
   xmlns="http://www.w3.org/2000/svg"
   xmlns:svg="http://www.w3.org/2000/svg"><defs
   id="defs26" /><sodipodi:namedview
   id="namedview26"
   pagecolor="#505050"
   bordercolor="#eeeeee"
   borderopacity="1"
   inkscape:showpageshadow="0"
   inkscape:pageopacity="0"
   inkscape:pagecheckerboard="0"
   inkscape:deskcolor="#505050"
   inkscape:zoom="1.9199219"
   inkscape:cx="255.73957"
   inkscape:cy="256"
   inkscape:window-width="2057"
   inkscape:window-height="1197"
   inkscape:window-x="1911"
   inkscape:window-y="-9"
   inkscape:window-maximized="1"
   inkscape:current-layer="Layer_1" />

<path
   fill="#99CCCC"
   opacity="1.000000"
   stroke="none"
   d=" M352.996552,45.760132   C354.064758,30.818190 364.616821,18.953835 379.854950,17.136261   C397.338409,15.050867 410.622589,22.763065 416.025574,40.485558   C417.002930,43.691479 416.855682,47.280708 416.963715,50.701305   C417.109558,55.319912 416.999939,59.946587 416.999939,65.000351   C431.564209,65.000351 445.687958,64.810295 459.804169,65.054428   C473.599243,65.293015 483.737946,72.175583 491.097351,83.506889   C495.489960,90.270187 497.137024,97.604515 497.113312,105.779724   C496.914032,174.444122 496.928375,243.109512 497.091827,311.774109   C497.111908,320.204437 492.273163,321.694366 486.723145,320.975494   C483.394684,320.544373 481.430603,318.593811 481.036194,315.244598   C480.881256,313.929138 481.000580,312.580963 481.000549,311.247711   C480.999969,266.752747 481.000092,222.257782 481.000092,177.381439   C331.812805,177.381439 182.754288,177.381439 33.253498,177.381439   C33.177933,178.594437 33.011341,180.022507 33.011116,181.450607   C32.998592,261.115326 32.954594,340.780090 33.049480,420.444672   C33.063515,432.226898 36.641125,442.461731 48.905155,446.843903   C53.105595,448.344788 57.848400,448.905731 62.345074,448.913330   C135.009750,449.035980 207.674728,449.024200 280.339478,448.928955   C283.977814,448.924164 287.452942,449.648743 288.230255,453.047577   C288.908783,456.014374 287.998413,459.635437 286.840515,462.596100   C286.339233,463.877930 283.477783,464.812897 281.644135,464.893097   C275.323029,465.169647 268.982422,464.999939 262.649231,464.999939   C192.984283,464.999847 123.319252,465.060028 53.654442,464.960419   C34.434643,464.932922 17.033424,447.238342 17.024683,428.285553   C16.974493,319.454895 17.073315,210.624130 16.898617,101.793755   C16.878979,89.560394 27.515583,73.286613 39.541302,68.514992   C45.866398,66.005280 51.966293,64.897240 58.587086,64.963432   C71.216660,65.089691 83.848389,65.000076 96.999527,65.000076   C96.999527,58.180603 96.694702,51.702507 97.060020,45.262428   C97.948097,29.607048 111.177521,17.601271 126.903084,16.889225   C144.696411,16.083551 156.013062,26.494373 160.331924,40.944534   C161.157227,43.705818 160.918060,46.816162 160.974808,49.769215   C161.067535,54.595211 160.999878,59.424290 160.999878,64.625412   C182.198944,64.625412 203.260864,64.625412 224.998520,64.625412   C224.998520,58.352329 224.687653,51.893890 225.061035,45.475258   C225.930450,30.530127 236.796295,18.920488 251.713333,17.164078   C270.307343,14.974727 282.860321,23.076952 288.358368,41.209175   C290.120850,47.021816 288.876892,53.747635 288.995880,60.055889   C289.023529,61.522545 288.999969,62.990170 288.999969,64.726990   C310.406342,64.726990 331.467163,64.726990 352.993622,64.726990   C352.993622,58.454594 352.993622,52.323170 352.996552,45.760132  M353.284637,104.772453   C353.284637,96.997528 353.284637,89.222603 353.284637,81.249611   C331.505646,81.249611 310.449280,81.249611 288.999695,81.249611   C288.999695,87.117928 288.873444,92.749046 289.033813,98.371986   C289.207489,104.460831 287.517365,109.864952 284.042023,114.840416   C274.297455,128.791168 262.395203,130.949875 249.042267,128.334869   C233.652313,125.320923 224.073669,111.239380 224.947052,97.229874   C225.275085,91.967804 225.000198,86.668152 225.000198,80.999947   C214.054657,80.999947 203.597946,80.999947 193.141251,80.999947   C182.537247,80.999947 171.933258,80.999947 160.999680,80.999947   C160.999680,87.182106 160.837616,92.822083 161.042862,98.448669   C161.272324,104.739021 159.337158,110.296562 155.877670,115.372498   C148.473984,126.235580 132.814285,131.761673 120.924873,128.560501   C105.782913,124.483589 96.011864,110.997726 96.942833,97.152115   C97.295975,91.900108 97.000198,86.604454 97.000198,81.998871   C82.397240,81.998871 68.339928,81.685799 54.304859,82.109634   C45.046211,82.389229 37.476250,88.470207 35.131058,96.860764   C33.659672,102.125038 33.180805,107.792816 33.090824,113.293198   C32.832829,129.063675 32.999939,144.841110 32.999939,160.758789   C182.532181,160.758789 331.561066,160.758789 480.995392,160.758789   C480.995392,142.734421 481.057953,124.947723 480.929077,107.162407   C480.909393,104.442131 480.323700,101.621506 479.454407,99.030281   C476.076569,88.961922 469.644928,82.246956 458.429932,82.041283   C444.745544,81.790306 431.053070,81.981575 416.969727,81.981575   C416.969727,88.993668 418.138123,96.688202 416.720398,103.872421   C413.979950,117.759567 402.363281,127.746063 388.843170,129.047775   C370.478821,130.815887 356.679565,119.575844 353.284637,104.772453  M401.000031,88.428780   C400.666138,74.372726 400.751831,60.289726 399.851257,46.270069   C399.247650,36.872952 387.587189,31.105520 378.952301,34.959442   C371.836334,38.135429 369.261932,44.376949 369.176544,51.126186   C368.973541,67.172203 369.411591,83.240814 370.116547,99.277184   C370.427643,106.354912 377.096069,112.042282 384.115448,112.527534   C390.591095,112.975182 398.480652,107.486855 399.838562,101.103371   C400.649048,97.293228 400.640442,93.308853 401.000031,88.428780  M267.477448,37.984554   C263.043274,33.528111 257.527740,32.865177 252.009598,34.660545   C246.190720,36.553764 242.417282,40.848904 242.025726,47.275593   C241.554520,55.009995 241.044769,62.760479 241.072128,70.502167   C241.106552,80.245438 241.432419,90.002678 242.086319,99.723373   C242.506180,105.965401 249.949097,113.481003 258.279144,112.119881   C269.288605,110.320961 272.470581,103.534843 272.856506,93.884613   C273.415131,79.916939 273.398682,65.892326 272.770416,51.930576   C272.566437,47.397343 269.674377,42.985065 267.477448,37.984554  M121.545204,110.084702   C125.464264,113.555626 129.932922,112.706337 134.173691,111.252151   C142.678894,108.335640 144.641296,101.048271 144.921051,93.258812   C145.255569,83.944580 145.122772,74.606979 144.957687,65.283661   C144.844131,58.869240 144.666779,52.422321 143.916412,46.060883   C142.859818,37.103329 132.118729,31.439533 123.683357,34.747665   C115.485046,37.962833 113.300514,44.808029 113.102722,52.387642   C112.742249,66.201057 112.805885,80.034584 113.087547,93.851662   C113.216484,100.176788 114.984589,106.143051 121.545204,110.084702  z"
   id="path2" />
<path
   fill="#99CCCC"
   opacity="1.000000"
   stroke="none"
   d=" M419.857910,292.031281   C432.832916,295.655670 444.505676,300.998840 454.954773,308.967438   C476.177490,325.152100 489.819641,346.070831 495.008667,372.358429   C498.831299,391.723846 497.843597,410.747406 491.009918,429.370544   C483.882751,448.793457 471.614227,464.378265 455.356689,476.920776   C442.840790,486.576630 428.499908,493.013824 413.166870,495.537170   C401.633301,497.435150 389.509399,496.629028 377.720520,495.883911   C360.421967,494.790588 344.950409,487.710327 331.303009,477.515900   C310.449493,461.938660 296.459869,441.439117 291.003143,415.637695   C284.653778,385.615723 289.618927,357.441040 307.365784,332.502319   C322.638611,311.040161 343.656555,296.762390 369.697754,291.111359   C386.229919,287.523834 402.929047,287.698486 419.857910,292.031281  M338.968109,461.492462   C347.920441,469.365540 358.455292,474.105103 369.796295,477.421356   C383.595367,481.456329 397.622742,482.092194 411.408936,478.647888   C431.460968,473.638184 448.600861,463.555664 461.637329,446.966125   C471.617767,434.265503 478.047577,419.911194 479.701782,404.132172   C481.112549,390.675201 480.055603,377.147400 475.211548,363.895142   C468.982117,346.852783 459.085114,332.698425 444.535278,322.419830   C424.434204,308.219574 402.050903,302.033844 377.223114,306.943726   C353.719543,311.591675 334.861206,323.623932 321.160889,342.971161   C310.060547,358.646759 304.624664,376.251678 305.771729,395.967499   C306.388641,406.571594 308.097168,416.658630 312.034241,426.382263   C317.665497,440.290192 326.602081,451.779572 338.968109,461.492462  z"
   id="path3" />
<path
   fill="#99CCCC"
   opacity="1.000000"
   stroke="none"
   d=" M132.413879,272.983459   C120.162056,272.997345 108.353958,273.013245 96.545906,272.995087   C87.145920,272.980652 81.025238,266.857056 81.004143,257.460480   C80.985474,249.144958 80.984329,240.829330 81.004395,232.513840   C81.027321,223.010223 87.045219,217.019394 96.588013,217.004242   C107.564507,216.986816 118.541084,216.983612 129.517563,217.005280   C138.887955,217.023788 144.977036,223.169418 144.996597,232.602966   C145.012451,240.253235 145.000214,247.903580 144.999802,255.553879   C144.999268,265.638580 142.440567,269.308380 132.413879,272.983459  M129.000061,240.568207   C129.000061,238.141602 129.000061,235.714996 129.000061,233.292542   C118.037102,233.292542 107.669571,233.292542 97.299286,233.292542   C97.299286,241.296631 97.299286,249.004578 97.299286,256.704468   C107.968910,256.704468 118.336533,256.704468 129.000061,256.704468   C129.000061,251.457230 129.000061,246.502487 129.000061,240.568207  z"
   id="path4" />
<path
   fill="#99CCCC"
   opacity="1.000000"
   stroke="none"
   d=" M177.000061,243.005676   C177.299561,237.429474 176.958618,232.208481 178.054077,227.308655   C179.561874,220.564575 184.765839,217.051712 191.637482,217.016693   C203.299942,216.957275 214.963593,216.924454 226.625443,217.027069   C234.450043,217.095917 240.871078,223.471939 240.971710,231.258133   C241.090118,240.420197 241.090530,249.586151 240.971542,258.748199   C240.870453,266.531952 234.445526,272.904785 226.619064,272.973145   C214.957199,273.074951 203.293427,273.055115 191.631149,272.980682   C183.420975,272.928314 177.144424,266.667816 177.015015,258.498810   C176.935852,253.501755 177.000183,248.502411 177.000061,243.005676  M194.752625,233.013458   C194.172531,233.623260 193.097870,234.225021 193.087830,234.844055   C192.970139,242.098419 193.012344,249.355362 193.012344,256.754639   C203.863510,256.754639 214.231537,256.754639 224.746490,256.754639   C224.746490,248.799927 224.746490,241.091888 224.746490,233.001648   C214.903183,233.001648 205.308334,233.001648 194.752625,233.013458  z"
   id="path5" />
<path
   fill="#99CCCC"
   opacity="1.000000"
   stroke="none"
   d=" M279.115631,270.025238   C274.768921,266.607300 272.865479,262.406097 272.961151,257.137054   C273.109131,248.986313 272.988739,240.830872 273.003143,232.677460   C273.020081,223.094223 278.983734,217.026123 288.437469,217.005829   C299.585999,216.981918 310.734711,216.971588 321.883148,217.009369   C330.694672,217.039230 336.940552,223.229202 336.989258,231.983322   C337.037384,240.635666 337.032623,249.288666 336.990570,257.941101   C336.947937,266.720184 330.730164,272.955322 321.958649,272.989105   C310.643829,273.032684 299.323242,273.191376 288.017609,272.866455   C285.154175,272.784180 282.338043,271.055420 279.115631,270.025238  M310.473236,232.999939   C303.400024,232.999939 296.326813,232.999939 289.317078,232.999939   C289.317078,241.334076 289.317078,249.042572 289.317078,256.687561   C300.004669,256.687561 310.372192,256.687561 320.681427,256.687561   C320.681427,248.662888 320.681427,240.954346 320.681427,232.999939   C317.397034,232.999939 314.429047,232.999939 310.473236,232.999939  z"
   id="path6" />
<path
   fill="#99CCCC"
   opacity="1.000000"
   stroke="none"
   d=" M369.130005,261.279236   C369.019257,251.205154 369.106995,241.557465 368.972717,231.912888   C368.839722,222.359314 376.919250,216.972992 383.693542,216.991653   C395.169403,217.023254 406.645569,216.958984 418.121277,217.013931   C426.604828,217.054550 432.918854,223.297943 432.984375,231.711014   C433.053009,240.525330 433.044281,249.340897 432.986877,258.155365   C432.932129,266.559662 426.616516,272.933960 418.254791,272.983917   C407.444519,273.048523 396.633545,273.000732 385.822876,272.999573   C376.777283,272.998596 372.319580,269.963379 369.130005,261.279236  M384.999969,244.507889   C384.999969,248.591782 384.999969,252.675690 384.999969,256.688599   C396.002747,256.688599 406.370178,256.688599 416.682678,256.688599   C416.682678,248.665009 416.682678,240.957123 416.682678,233.312485   C405.995056,233.312485 395.627625,233.312485 384.999969,233.312485   C384.999969,236.920975 384.999969,240.219406 384.999969,244.507889  z"
   id="path7" />
<path
   fill="#99CCCC"
   opacity="1.000000"
   stroke="none"
   d=" M240.999847,377.233582   C240.999802,385.871338 241.047455,394.037659 240.986435,402.203125   C240.923630,410.606506 234.581253,416.942932 226.158997,416.985229   C214.660324,417.042969 203.160797,417.053284 191.662277,416.981628   C183.440948,416.930328 177.109283,410.685150 177.022324,402.524200   C176.926437,393.526031 176.993027,384.526062 177.002472,375.526855   C177.011948,366.500183 184.450592,361.050934 191.627380,361.015076   C202.792770,360.959259 213.958649,360.992035 225.124298,361.002625   C234.936646,361.011932 240.871765,366.913788 240.999847,377.233582  M198.616608,376.999969   C196.850891,376.999969 195.085175,376.999969 193.289154,376.999969   C193.289154,385.275299 193.289154,392.983215 193.289154,400.713989   C203.948608,400.713989 214.316376,400.713989 224.706802,400.713989   C224.706802,392.716522 224.706802,385.008514 224.706802,376.999969   C216.140808,376.999969 207.865433,376.999969 198.616608,376.999969  z"
   id="path8" />
<path
   fill="#99CCCC"
   opacity="1.000000"
   stroke="none"
   d=" M90.422150,415.998840   C82.869759,412.350342 80.558739,406.358490 80.925522,398.639771   C81.272560,391.336304 80.989113,384.003387 81.002922,376.683472   C81.021004,367.100098 86.981628,361.026581 96.426239,361.005890   C107.572464,360.981476 118.718864,360.972321 129.865021,361.009125   C138.685364,361.038239 144.939026,367.215851 144.988693,375.960144   C145.038773,384.777069 145.057739,393.594971 144.982071,402.411530   C144.915955,410.117554 138.959167,416.780243 131.488144,416.930634   C119.182320,417.178436 106.867722,417.025909 94.557312,416.955353   C93.314178,416.948212 92.074455,416.346222 90.422150,415.998840  M97.110237,377.777740   C97.110237,385.370483 97.110237,392.963226 97.110237,400.775116   C107.810684,400.775116 118.178772,400.775116 128.771942,400.775116   C128.771942,392.852386 128.771942,385.144348 128.771942,377.107178   C118.297432,377.107178 108.047028,377.107178 97.110237,377.777740  z"
   id="path9" />
<path
   fill="#99CCCC"
   opacity="1.000000"
   stroke="none"
   d=" M124.929459,344.999969   C115.108925,344.999908 105.777908,345.017639 96.447006,344.994720   C87.274078,344.972198 81.044289,338.854401 81.007637,329.813446   C80.973198,321.315765 80.977776,312.817719 81.006294,304.319977   C81.037102,295.142212 87.147835,289.030426 96.329971,289.006836   C107.327110,288.978607 118.324387,288.988831 129.321579,289.003601   C138.818146,289.016357 144.968475,295.077515 144.995224,304.454865   C145.017548,312.286163 144.525482,320.153717 145.118851,327.939850   C145.876129,337.876556 137.871048,346.251526 127.916763,345.013367   C127.096321,344.911316 126.252159,344.999939 124.929459,344.999969  M112.501648,304.999969   C107.422089,304.999969 102.342529,304.999969 97.313911,304.999969   C97.313911,313.328522 97.313911,321.036438 97.313911,328.691589   C107.997536,328.691589 118.364403,328.691589 128.686188,328.691589   C128.686188,320.671692 128.686188,312.963776 128.686188,304.999969   C123.415848,304.999969 118.457092,304.999969 112.501648,304.999969  z"
   id="path10" />
<path
   fill="#99CCCC"
   opacity="1.000000"
   stroke="none"
   d=" M177.000122,327.821716   C177.000137,319.679169 176.978912,312.013489 177.005692,304.347961   C177.037857,295.137115 183.117111,289.031311 192.304932,289.007172   C203.470001,288.977814 214.635269,288.974731 225.800308,289.008301   C234.656052,289.034912 240.935547,295.197906 240.988297,303.936829   C241.040619,312.601990 241.032410,321.267883 240.990585,329.933167   C240.948135,338.730164 234.728546,344.955658 225.930237,344.989716   C215.098541,345.031677 204.245163,344.578827 193.441238,345.128326   C184.212585,345.597687 175.797562,337.807556 177.000122,327.821716  M192.999939,310.616302   C192.999939,316.686646 192.999939,322.756989 192.999939,328.655457   C204.067978,328.655457 214.437698,328.655457 224.648163,328.655457   C224.648163,320.596191 224.648163,312.885559 224.648163,305.172607   C214.045807,305.172607 203.796326,305.172607 193.223648,305.172607   C193.144028,306.764069 193.071976,308.204010 192.999939,310.616302  z"
   id="path11" />
<path
   fill="#99CCCC"
   opacity="1.000000"
   stroke="none"
   d=" M313.956909,289.000031   C318.638794,289.767242 323.877838,286.776031 326.834778,291.582458   C328.307434,293.976288 329.457245,297.784698 328.548248,300.080139   C327.668213,302.302521 324.021393,304.657501 321.483795,304.781311   C310.871857,305.299011 300.220001,304.999542 289.292603,304.999542   C289.292603,312.893768 289.292603,320.491943 289.292603,326.255890   C292.430481,329.981873 296.045959,332.394775 296.734741,335.464355   C298.435455,343.043915 292.736237,346.314148 284.835052,344.846191   C277.903656,343.558441 273.053497,337.326965 273.012421,330.179077   C272.961670,321.347443 273.069061,312.514679 272.981506,303.683624   C272.888519,294.305817 281.103790,288.873993 287.969238,288.971344   C296.466156,289.091919 304.966095,289.000092 313.956909,289.000031  z"
   id="path12" />













<path
   fill="#99CCCC"
   opacity="1.000000"
   stroke="none"
   d=" M375.351044,440.997070   C373.238525,440.115814 371.201752,439.581909 369.897675,438.301697   C359.440826,428.035767 349.070099,417.680420 338.784454,407.242584   C333.906982,402.292877 333.519623,396.916321 337.422821,393.094757   C340.395142,390.184662 345.308258,390.039215 348.357178,392.915527   C357.887848,401.906647 367.371124,410.948059 377.103058,420.188629   C378.316345,419.041840 379.523254,417.955109 380.670441,416.808655   C399.047821,398.442993 417.349396,380.000305 435.877289,361.787872   C438.139557,359.564087 441.507172,357.630737 444.549042,357.305176   C446.869446,357.056854 450.696716,358.987488 451.658173,360.998474   C452.820953,363.430695 452.055450,367.059692 451.371521,369.995331   C450.970856,371.714996 449.243134,373.232239 447.875000,374.603729   C427.056213,395.473969 406.160950,416.268127 385.393738,437.189423   C382.614624,439.989166 379.674744,441.490112 375.351044,440.997070  z"
   id="path26" />
</svg>
