<?xml version="1.0" encoding="UTF-8" standalone="no"?>
<svg
   version="1.1"
   id="Layer_1"
   x="0px"
   y="0px"
   width="100%"
   viewBox="0 0 512 512"
   enable-background="new 0 0 512 512"
   xml:space="preserve"
   sodipodi:docname="lock.svg"
   inkscape:version="1.3.2 (091e20e, 2023-11-25, custom)"
   xmlns:inkscape="http://www.inkscape.org/namespaces/inkscape"
   xmlns:sodipodi="http://sodipodi.sourceforge.net/DTD/sodipodi-0.dtd"
   xmlns="http://www.w3.org/2000/svg"
   xmlns:svg="http://www.w3.org/2000/svg"><defs
   id="defs7" /><sodipodi:namedview
   id="namedview7"
   pagecolor="#505050"
   bordercolor="#eeeeee"
   borderopacity="1"
   inkscape:showpageshadow="0"
   inkscape:pageopacity="0"
   inkscape:pagecheckerboard="0"
   inkscape:deskcolor="#505050"
   inkscape:zoom="1.9199219"
   inkscape:cx="255.73957"
   inkscape:cy="256"
   inkscape:window-width="2057"
   inkscape:window-height="1197"
   inkscape:window-x="1911"
   inkscape:window-y="-9"
   inkscape:window-maximized="1"
   inkscape:current-layer="Layer_1" />

<path
   fill="#99CCCC"
   opacity="1.000000"
   stroke="none"
   d=" M301.869873,25.019577   C310.047150,29.337446 318.367310,32.897522 325.459564,38.123920   C333.407166,43.980659 340.412750,51.171783 347.519379,58.099125   C355.920746,66.288536 361.635864,76.384659 366.437042,86.966232   C371.343842,97.780449 375.501404,108.980911 375.890381,120.936966   C376.608459,143.010559 376.575958,165.107864 377.127228,187.188538   C377.188538,189.645203 378.388275,192.680710 380.109467,194.392883   C394.245209,208.455093 406.083313,224.275848 414.871246,242.064896   C422.989532,258.498413 429.405579,275.768707 430.911407,294.274445   C432.062073,308.415253 433.536987,322.698730 432.700714,336.790131   C431.614441,355.095184 426.850403,372.840363 419.667450,389.900146   C412.605652,406.672211 403.278961,422.113922 391.487152,435.743744   C379.110474,450.049652 364.868103,462.524414 348.402527,472.277710   C331.964081,482.014954 314.553345,489.304474 295.947052,493.420227   C287.373444,495.316681 278.502045,495.880646 269.757477,496.983795   C266.343414,497.414490 262.899567,498.014374 259.481750,497.942596   C240.151260,497.536469 221.171204,495.104767 202.640366,489.101776   C181.528427,482.262665 162.456985,471.946014 145.355392,457.871277   C113.454536,431.616760 93.205849,398.171936 84.096222,357.994476   C80.080696,340.284271 79.920853,322.127747 81.271820,304.225800   C82.723808,284.985168 87.784706,266.366547 95.961090,248.645309   C103.019737,233.346649 111.849991,219.311768 122.867989,206.608612   C124.359840,204.888596 125.450996,202.667191 127.234474,201.380325   C135.399658,195.488815 137.965591,187.849899 137.217789,177.816956   C136.303879,165.555481 137.708466,153.124161 136.844955,140.855347   C135.297455,118.868896 140.798141,98.705055 150.883453,79.569275   C157.882431,66.289459 167.437057,55.105621 178.945908,45.302528   C189.752029,36.098011 201.378860,28.383360 214.810150,24.260162   C225.901794,20.855200 237.480072,18.447609 249.015427,17.217768   C265.126831,15.500048 281.070953,17.896463 296.511749,23.028688   C298.196747,23.588745 299.819397,24.336441 301.869873,25.019577  M199.012238,172.487534   C192.005310,175.826920 184.837036,178.868622 178.021896,182.561890   C158.090225,193.363297 141.746994,208.487213 128.322388,226.523041   C116.157700,242.866150 107.129364,261.066925 102.682137,281.046753   C99.966690,293.246246 97.904274,305.753845 97.297508,318.208252   C96.816795,328.075409 98.876457,338.085968 100.021667,348.008209   C101.828102,363.659485 107.188568,378.334503 114.198997,392.210663   C124.320847,412.245392 137.925919,429.766571 155.495544,444.027496   C168.324921,454.440887 182.193237,462.973724 197.621017,469.059235   C218.465836,477.281433 239.911133,480.794647 262.367676,480.204193   C278.752686,479.773407 294.598206,477.080872 309.742340,471.478455   C335.492340,461.952515 357.996521,447.397278 376.282745,426.413330   C391.049957,409.467560 401.810394,390.475861 408.905640,369.294739   C414.116486,353.739044 416.702118,337.590912 416.439636,321.309875   C416.204224,306.709473 414.187195,292.233490 410.215912,277.916748   C403.081024,252.194580 390.086273,230.031586 372.086121,210.749207   C359.075745,196.812012 343.641113,186.027145 326.379242,177.650803   C310.932495,170.155273 294.892151,165.120331 277.922791,163.059372   C271.716400,162.305588 265.420959,162.145294 259.159973,162.018097   C252.340683,161.879562 245.314697,161.077148 238.733002,162.368851   C225.590042,164.948242 212.689026,168.760452 199.012238,172.487534  M297.428101,77.952080   C293.727509,75.985390 290.118927,73.816360 286.311127,72.085533   C264.950317,62.376057 243.612350,63.420155 223.178970,74.150154   C206.485306,82.916344 194.855957,96.759453 188.999756,114.936035   C184.331558,129.425293 185.025864,144.439178 185.013138,159.484421   C233.056656,139.756531 280.909637,139.486710 329.447357,159.904526   C328.946075,150.496155 329.042023,141.539551 327.833435,132.762558   C326.716797,124.653427 324.887360,116.493034 322.148071,108.790451   C317.623627,96.068291 308.413269,86.670654 297.428101,77.952080  M224.381531,54.927399   C240.926788,47.656727 258.347992,47.043415 275.533569,50.494358   C294.564392,54.315838 310.731354,63.921497 323.632019,78.981834   C337.342468,94.987473 344.578094,113.228348 344.967682,134.201782   C345.153320,144.195450 344.927887,154.196457 345.071503,164.191513   C345.095093,165.833633 345.561066,168.162018 346.687134,168.973465   C351.102936,172.155411 355.864929,174.856888 361.079498,178.098099   C360.588104,157.104233 362.131317,136.805756 358.076538,116.686249   C352.528198,89.155762 338.087982,67.680511 315.207428,51.583393   C304.702148,44.192600 293.042694,39.353439 280.797363,36.219608   C273.125885,34.256317 264.956696,33.037582 257.082977,33.343300   C244.977722,33.813324 232.958618,35.459007 221.323990,39.795696   C202.237000,46.910160 186.586884,58.563835 174.340942,74.483261   C161.272964,91.471298 154.233154,111.152977 153.147842,132.538635   C152.391327,147.445709 153.002106,162.422165 153.002106,178.291168   C158.566071,174.579590 164.401199,172.044540 168.099884,167.693390   C170.204056,165.218033 168.906601,159.775497 168.977585,155.666306   C169.069656,150.336105 168.866470,144.999023 169.030823,139.672302   C169.255020,132.405945 168.546875,124.859749 170.260788,117.933983   C177.591858,88.309746 195.160965,66.951103 224.381531,54.927399  z"
   id="path2" />



<path
   fill="#99CCCC"
   opacity="1.000000"
   stroke="none"
   d=" M296.431610,330.100067   C293.671295,339.001862 290.100769,346.828033 282.504486,352.297607   C281.412537,353.083801 281.077667,355.466766 281.062744,357.116852   C280.948334,369.776337 280.525970,382.460724 281.150513,395.090363   C281.646179,405.114594 269.114471,417.606354 259.092743,417.155853   C245.622009,416.550323 237.062180,411.402252 233.638718,400.115204   C233.174881,398.585999 233.032867,396.908813 233.026871,395.299072   C232.979095,382.472137 233.097656,369.643311 232.882736,356.819794   C232.854294,355.122681 231.573318,353.117737 230.296066,351.824615   C222.878815,344.315247 217.819962,335.801331 216.946091,324.978577   C215.942627,312.550842 219.215469,301.633881 227.898361,292.679382   C239.375992,280.842712 256.817566,277.949677 272.216980,283.596954   C286.841187,288.959991 298.110107,304.444733 297.012848,321.319702   C296.829865,324.134064 296.818329,326.959564 296.431610,330.100067  M235.921173,330.461975   C238.493546,333.684631 240.556870,337.605835 243.770920,339.947906   C247.540405,342.694733 249.129807,345.577393 249.066666,350.136078   C248.879837,363.628113 248.958420,377.124542 249.020157,390.618866   C249.045563,396.173798 252.582932,400.713806 256.794250,400.917328   C261.058624,401.123413 264.866638,396.306274 264.997314,390.530579   C265.016144,389.697998 265.000092,388.864624 265.000092,388.031616   C265.000122,375.203430 265.055481,362.374817 264.966949,349.547272   C264.940033,345.648102 265.965973,342.844666 269.615021,340.613617   C276.910675,336.153076 281.163300,328.819244 280.714142,320.703857   C279.935303,306.631897 269.982849,295.604950 253.178909,298.022644   C238.566055,300.125092 229.295197,316.202271 235.921173,330.461975  z"
   id="path6" />

</svg>
