<?xml version="1.0" encoding="UTF-8" standalone="no"?>
<svg
   version="1.1"
   id="Layer_1"
   x="0px"
   y="0px"
   width="100%"
   viewBox="0 0 512 512"
   enable-background="new 0 0 512 512"
   xml:space="preserve"
   sodipodi:docname="protect.svg"
   inkscape:version="1.3.2 (091e20e, 2023-11-25, custom)"
   xmlns:inkscape="http://www.inkscape.org/namespaces/inkscape"
   xmlns:sodipodi="http://sodipodi.sourceforge.net/DTD/sodipodi-0.dtd"
   xmlns="http://www.w3.org/2000/svg"
   xmlns:svg="http://www.w3.org/2000/svg"><defs
   id="defs7" /><sodipodi:namedview
   id="namedview7"
   pagecolor="#505050"
   bordercolor="#eeeeee"
   borderopacity="1"
   inkscape:showpageshadow="0"
   inkscape:pageopacity="0"
   inkscape:pagecheckerboard="0"
   inkscape:deskcolor="#505050"
   inkscape:zoom="1.9199219"
   inkscape:cx="255.73957"
   inkscape:cy="256"
   inkscape:window-width="2057"
   inkscape:window-height="1197"
   inkscape:window-x="1911"
   inkscape:window-y="-9"
   inkscape:window-maximized="1"
   inkscape:current-layer="Layer_1" />

<path
   d="m 257.0293,16.976562 c -1.42174,-0.0097 -2.83956,0.225869 -4.29688,0.712891 -63.07986,21.08077 -126.16219,42.155989 -189.267576,63.160156 -4.488701,1.494033 -6.549847,4.015942 -6.535157,8.939453 0.122787,41.161508 0.249249,82.324028 -0.002,123.484378 -0.12984,21.27503 1.647205,42.22875 5.888672,63.1289 4.734561,23.32994 12.624385,45.48617 22.388672,67.03711 5.021663,11.08346 11.392066,21.47807 17.781252,31.85157 10.13239,16.45097 22.35051,31.29136 35.42383,45.35546 8.3425,8.97473 17.8389,16.88115 27.3164,24.75391 12.78798,10.62267 26.46405,19.88017 41.00196,27.76758 14.72758,7.99035 29.90287,15.15677 44.87695,22.69336 3.1061,1.56332 6.47531,1.98959 9.48633,0.45898 17.65898,-8.97676 35.83061,-16.95274 52.80664,-27.27148 16.59355,-10.08627 32.5034,-21.1411 46.73047,-34.34375 12.23164,-11.35097 23.66251,-23.5273 33.96679,-36.73438 11.91558,-15.27238 22.53898,-31.42634 31.21094,-48.66797 9.2098,-18.31086 16.58658,-37.45763 21.79688,-57.3789 4.91765,-18.80263 8.92248,-37.89577 9.18164,-57.25391 0.64917,-48.48565 0.18234,-96.98628 0.26953,-145.480467 0.008,-4.55025 -2.12821,-6.90471 -6.13477,-8.244141 -29.31161,-9.799284 -58.61413,-19.626531 -88.26367,-29.662109 -0.98886,-0.326355 -1.66226,-0.352814 -2.27539,-0.556641 -33.01816,-10.976678 -66.03757,-21.948167 -99.0332,-32.992187 -1.47174,-0.492604 -2.89663,-0.748148 -4.31836,-0.757813 z m -0.041,17.730469 c 1.26555,-0.0022 2.5288,0.222041 3.87695,0.671875 44.77788,14.9408 89.51894,29.99301 134.41602,44.56836 14.40657,4.676928 28.36162,10.72887 43.15625,14.21875 2.76822,0.652992 2.59399,2.828013 2.58789,5.042968 C 440.97861,116.20403 441,133.19818 441,150.19336 c 0,18.82798 0.52463,37.67534 -0.13086,56.48047 -0.83203,23.8691 -1.88352,47.65693 -7.57812,71.1875 -5.91748,24.45148 -14.46932,47.65416 -26.26172,69.74219 -8.97933,16.81898 -19.77641,32.38069 -32.02539,47.04882 -15.78771,18.90581 -33.82925,35.20662 -53.92188,49.31836 -19.21562,13.49575 -40.27947,23.69368 -61.23242,34.08399 -1.91586,0.95004 -3.41692,1.10141 -5.48242,0.0742 -20.35318,-10.12145 -40.86681,-19.87334 -59.72852,-32.7793 -17.58633,-12.03337 -33.63379,-25.80165 -48.06055,-41.38477 -15.53497,-16.7801 -28.50844,-35.48488 -39.50781,-55.54492 -8.350895,-15.2299 -15.167903,-31.10213 -20.357419,-48.10156 -5.035372,-16.5287 -9.077212,-32.84215 -10.865235,-49.7207 -0.919906,-8.68368 -1.522477,-17.33459 -1.935547,-26.05079 -1.946516,-41.07414 -0.317056,-82.16492 -1.003906,-123.24023 -0.07738,-4.628046 0.976925,-6.560959 5.878906,-7.921874 C 90.265888,90.197964 101.39225,85.763988 112.7168,82 159.50403,66.449128 206.32013,50.982204 253.09375,35.390625 c 1.36107,-0.453699 2.62898,-0.681402 3.89453,-0.683594 z"
   style="opacity:1;fill:#99cccc"
   id="path8" />

<path
   d="m 256.8125,66.876953 c -0.90695,0.03373 -1.82668,0.213993 -2.72656,0.513672 -47.72289,15.892554 -95.46031,31.741776 -143.16016,47.703125 -3.75947,1.258 -6.06186,3.64331 -6.0332,8.40625 0.20251,33.66173 0.21288,67.32602 0.0606,100.98828 -0.0671,14.8364 2.20679,29.3636 5.11132,43.80078 4.04063,20.08412 10.89443,39.31792 20.01563,57.59375 8.94129,17.91536 20.03651,34.5056 33.01172,49.88867 11.54048,13.68209 24.38075,25.99382 38.39453,36.91993 15.63574,12.19078 33.15155,21.53464 51.01758,30.12695 2.59515,1.24808 5.05078,1.75711 7.92382,0.375 9.76324,-4.6968 19.36513,-9.69944 28.66407,-15.24024 14.88569,-8.86977 28.84873,-19.04176 41.40039,-31.01757 8.49007,-8.10058 16.61112,-16.55629 23.93945,-25.78125 9.61782,-12.10711 18.33512,-24.77751 25.60156,-38.42578 8.54827,-16.0558 15.42472,-32.76546 20.29297,-50.3379 4.53924,-16.38493 8.16852,-33.02905 8.47461,-49.94335 0.65131,-35.98424 0.15796,-71.98858 0.24609,-107.98438 0.0127,-5.18133 -2.03027,-7.93416 -7.08593,-9.60156 -38.86483,-12.81796 -77.65141,-25.877013 -116.86719,-38.894533 -8.80865,-2.94656 -17.19224,-5.914523 -25.62891,-8.726563 -0.85122,-0.283729 -1.74539,-0.397008 -2.65234,-0.363281 z m 0.0762,18.294922 c 1.14228,-0.02563 2.28333,0.156377 3.5293,0.572266 42.82051,14.292739 85.64866,28.562589 128.55078,42.607419 3.51171,1.14963 4.10785,2.76899 4.09375,5.99024 -0.11096,25.32817 0.31473,50.66468 -0.16211,75.98437 -0.53,28.14151 -3.81956,55.93255 -13.83984,82.53906 -1.42221,3.7764 -2.74647,7.58857 -4.30469,11.72852 -5.85455,13.83293 -13.01844,26.55696 -20.99414,38.75195 -5.23529,8.00491 -11.44697,15.3961 -17.50195,22.83399 -9.91168,12.17549 -21.55208,22.59159 -34.03125,32.04687 -12.65148,9.58584 -26.06496,17.9192 -40.33594,24.98828 -3.84668,1.9054 -5.76417,1.89618 -9.71485,0.0449 -18.8386,-8.82754 -35.65852,-20.40019 -51.43359,-33.875 -14.99638,-12.80962 -28.11331,-27.29448 -39.09375,-43.48047 -16.49035,-24.30799 -28.35079,-50.8599 -34.63476,-79.70703 -3.35927,-15.42098 -4.45962,-31.03505 -5.24805,-46.81446 -1.41267,-28.27266 -0.1044,-56.52288 -0.83008,-84.76953 -0.0884,-3.44085 0.74187,-5.19821 4.29297,-6.36133 42.74893,-14.00191 85.44747,-28.16049 128.11719,-42.402341 1.25411,-0.41859 2.39874,-0.652107 3.54101,-0.677734 z"
   style="opacity:1;fill:#99cccc"
   id="path9" />

<path
   d="m 336.01953,171.75781 c -2.43381,-0.0233 -4.85102,1.54962 -8.01172,4.71094 -27.79572,27.80127 -55.63508,55.55984 -83.3164,83.47461 -2.81802,2.84179 -4.2506,3.28073 -7.26758,0.14844 -11.32281,-11.7555 -22.98147,-23.18811 -34.54102,-34.71485 -4.32734,-4.31509 -7.40061,-4.44914 -12.61719,-1.23828 -2.28936,1.40912 -4.47386,2.95905 -5.95312,5.07031 -4.32441,6.17203 -10.15519,10.87547 -15.29883,16.24024 -5.4759,5.7113 -5.73734,10.2636 -0.10156,15.92578 21.50416,21.60496 43.10596,43.11281 64.64062,64.6875 1.9677,1.97134 4.16647,2.7507 6.96289,3.03711 5.14066,0.52646 7.77673,-2.88755 10.78907,-5.89844 34.56089,-34.544 69.12226,-69.08809 103.93164,-103.89453 2.96438,-2.96402 5.75217,-5.59717 8.3789,-8.38281 4.10446,-4.35281 5.23245,-10.66889 -0.29882,-15.35156 -6.84149,-5.79184 -12.83058,-12.59114 -19.19141,-18.95118 -3.22165,-3.22122 -5.67166,-4.84 -8.10547,-4.86328 z m -0.006,21.79297 c 1.00167,-0.0563 1.99213,0.58316 3.24024,2.0625 2.34084,2.77453 5.3056,5.02202 6.66796,6.27734 -29.42239,29.9905 -58.4204,59.55008 -87.66992,89.35938 -5.1971,5.19781 -10.21431,10.08076 -15.05468,15.13086 -1.66579,1.73794 -2.67193,1.71835 -4.3711,0.008 -17.02334,-17.1374 -34.10136,-34.21843 -51.24414,-51.23633 -1.7534,-1.74059 -1.53122,-2.66792 0.0547,-4.37304 8.02198,-8.62486 7.97907,-8.68876 16.34765,-0.28907 9.12687,9.16078 18.34685,18.22459 26.97071,27.88477 2.36816,2.65274 5.06966,5.3266 9.27148,5.71289 4.79927,0.44125 7.53597,-2.67932 10.48242,-5.32031 4.04714,-3.62759 7.32404,-8.06754 11.11719,-11.91797 23.4987,-23.8534 47.31127,-47.39749 70.87891,-71.18359 1.29434,-1.30635 2.30692,-2.05895 3.30859,-2.11524 z"
   style="opacity:1;fill:#99cccc;fill-opacity:1"
   id="path10" />

</svg>
