<?xml version="1.0" encoding="UTF-8" standalone="no"?>
<svg
   version="1.1"
   id="Layer_1"
   x="0px"
   y="0px"
   width="100%"
   viewBox="0 0 512 512"
   enable-background="new 0 0 512 512"
   xml:space="preserve"
   sodipodi:docname="world.svg"
   inkscape:version="1.3.2 (091e20e, 2023-11-25, custom)"
   xmlns:inkscape="http://www.inkscape.org/namespaces/inkscape"
   xmlns:sodipodi="http://sodipodi.sourceforge.net/DTD/sodipodi-0.dtd"
   xmlns="http://www.w3.org/2000/svg"
   xmlns:svg="http://www.w3.org/2000/svg"><defs
   id="defs6" /><sodipodi:namedview
   id="namedview6"
   pagecolor="#505050"
   bordercolor="#eeeeee"
   borderopacity="1"
   inkscape:showpageshadow="0"
   inkscape:pageopacity="0"
   inkscape:pagecheckerboard="0"
   inkscape:deskcolor="#505050"
   inkscape:zoom="1.9199219"
   inkscape:cx="255.73957"
   inkscape:cy="256"
   inkscape:window-width="2057"
   inkscape:window-height="1197"
   inkscape:window-x="1911"
   inkscape:window-y="-9"
   inkscape:window-maximized="1"
   inkscape:current-layer="Layer_1" />

<path
   fill="#99CCCC"
   opacity="1.000000"
   stroke="none"
   d=" M496.999725,252.005402   C498.021423,282.282227 493.134155,311.110687 483.027161,339.088440   C474.927826,361.508667 463.994507,382.424988 449.227783,401.190796   C442.442993,409.813049 435.695587,418.582092 427.960388,426.313202   C414.410309,439.856171 399.492126,451.909027 383.112701,461.937042   C365.361115,472.805176 346.594208,481.674255 326.447754,487.051575   C314.101746,490.346863 301.514740,493.052368 288.867523,494.812714   C277.475494,496.398346 265.861664,496.564636 254.332062,496.950073   C233.212616,497.656006 212.564133,494.217468 192.304947,488.616089   C161.627487,480.134216 133.639694,466.150024 108.761459,446.202209   C101.598465,440.458771 94.255730,434.793915 87.898849,428.219482   C72.431572,412.222931 58.696087,394.874664 47.639996,375.388733   C35.203732,353.470245 26.813396,330.124023 21.412373,305.665131   C19.589085,297.408234 18.802992,288.882202 18.083471,280.433105   C17.368553,272.038025 17.228825,263.587677 17.020586,255.157013   C16.486824,233.547195 19.888737,212.476135 25.649807,191.696381   C34.124695,161.128098 48.238556,133.481781 67.877853,108.593506   C87.876938,83.249306 111.928551,62.794575 140.068726,46.883453   C161.737091,34.631649 184.861053,26.472872 208.966003,21.184097   C230.513901,16.456356 252.615051,15.634861 274.507538,17.226130   C303.489960,19.332737 331.450500,26.251755 357.904663,38.889027   C377.673615,48.332748 396.076843,59.656425 412.632080,74.056068   C432.964966,91.741425 450.384949,111.732445 464.113251,135.052704   C476.970062,156.892487 486.129791,180.109970 491.734589,204.699677   C493.937195,214.363037 494.783325,224.353271 495.939514,234.230652   C496.609222,239.952209 496.666718,245.745453 496.999725,252.005402  M446.490326,375.024109   C452.329315,363.666382 458.712311,352.550232 463.887604,340.897705   C473.047821,320.272675 477.438202,298.319763 479.862793,275.979034   C480.032837,274.412384 478.734741,272.114960 477.404419,271.052856   C470.534882,265.568329 463.411530,260.402954 456.415161,255.075760   C441.823669,243.965439 433.146729,229.693756 433.007721,210.921387   C432.960815,204.588593 433.553925,198.191116 432.831085,191.941574   C432.213287,186.599899 430.797913,181.118515 428.543030,176.251312   C424.961731,168.521027 416.553497,166.753494 409.830627,162.934723   C405.643402,160.556259 403.598450,163.051178 402.122681,166.171234   C401.257446,168.000580 401.076141,170.275604 401.046875,172.356598   C400.932037,180.521393 401.001953,188.688782 400.999207,196.855194   C400.996613,204.488998 398.022064,210.584045 391.209839,214.253082   C383.650360,218.324600 376.061707,218.297638 368.400146,213.966309   C359.879425,209.149261 359.382690,200.611526 358.067291,192.541870   C356.367981,182.117355 355.136749,171.616547 353.684967,161.010010   C343.830780,161.796906 337.318726,157.143295 332.046143,149.657104   C328.039703,143.968613 329.197266,137.718124 329.015045,131.567047   C328.808075,124.581566 325.397644,121.096138 318.390350,121.012177   C313.224609,120.950279 308.019714,120.600609 302.898987,121.084717   C292.883118,122.031616 280.563538,109.090706 280.829559,99.067764   C281.390564,77.932228 281.000214,56.771442 281.000214,35.278549   C278.823486,34.830894 276.809082,34.090096 274.783142,34.057030   C266.433868,33.920761 258.045807,33.512394 249.737991,34.114479   C237.676483,34.988613 225.692764,36.928844 213.632080,37.825367   C209.299942,38.147388 208.910767,39.957756 208.945312,43.435871   C209.079422,56.934132 209.033478,70.434624 208.988861,83.934067   C208.955231,94.105148 198.397964,104.777435 188.249451,104.999893   C180.258377,105.175056 177.017502,108.442871 177.005264,116.426529   C176.985352,129.426117 177.014145,142.425751 176.995514,155.425339   C176.979691,166.472321 166.379517,176.983078 155.256088,176.997055   C144.756424,177.010239 134.256607,176.969559 123.757088,177.011856   C117.862572,177.035583 113.169495,180.573532 113.082657,184.923553   C112.996902,189.218735 117.777878,192.890549 123.604256,192.997864   C124.437279,193.013214 125.270836,193.000137 126.104141,193.000137   C151.770035,193.000183 177.435928,193.002930 203.101822,192.999405   C223.254257,192.996628 240.936356,210.790268 240.994827,230.726044   C241.023178,240.392334 241.315033,250.071503 240.925354,259.722168   C240.349365,273.986176 233.472778,284.661469 221.247055,291.969086   C213.463486,296.621552 204.984116,297.605713 196.150009,297.017273   C192.154770,296.751160 188.735703,298.004303 186.262527,301.336975   C182.485306,306.426849 178.877136,311.655914 174.866531,316.555176   C170.634506,321.724915 168.677628,327.183929 168.843948,334.087067   C169.297440,352.908905 168.861450,371.750244 169.053879,390.581055   C169.162247,401.184875 157.566422,408.305359 148.673813,405.331635   C139.453903,402.248444 134.356506,394.534790 128.106201,388.140228   C125.575630,385.551178 123.209801,382.298615 122.112961,378.912598   C119.631432,371.251984 117.651962,363.386475 116.092705,355.481110   C114.496552,347.388733 112.234383,345.007202 104.207603,345.002594   C88.208084,344.993439 72.208557,344.991638 56.209076,345.014740   C54.842484,345.016724 53.476196,345.227448 51.960529,345.353668   C87.645721,428.910889 166.860001,471.652710 224.861359,477.610443   C225.106308,468.088379 226.290771,458.552368 220.093079,450.057343   C218.010895,447.203308 216.769913,443.727722 215.200775,440.508789   C210.387589,430.634979 212.813339,417.614746 221.128159,410.428406   C231.537399,401.431854 242.252502,392.788666 252.640274,383.768036   C258.368347,378.793854 264.432739,376.171875 272.299744,376.845825   C280.406647,377.540314 288.619659,377.041382 296.785645,376.983704   C301.406433,376.951019 305.579407,375.118256 306.810059,370.652832   C308.485413,364.573517 309.297058,358.203247 309.937988,351.902679   C311.345551,338.066956 321.431061,328.567230 334.704224,328.913025   C349.360535,329.294800 364.036346,329.138458 378.699646,328.931824   C384.519623,328.849792 389.076813,331.180328 393.264557,334.770447   C399.827118,340.396484 401.469727,347.660583 401.104584,356.023773   C400.664093,366.112854 403.743866,368.894348 413.695129,369.037903   C415.279297,369.060760 417.037567,369.231781 418.404388,369.936981   C423.666809,372.652008 428.952301,375.375641 433.950775,378.536346   C441.269165,383.164093 441.167145,383.325439 446.490326,375.024109  M55.537468,329.000092   C72.536942,329.000092 89.544670,329.327057 106.533325,328.898315   C120.527893,328.545166 129.638687,336.822632 132.022705,349.481323   C133.042603,354.896790 134.433823,360.249878 135.270782,365.690613   C136.901443,376.290985 146.534378,380.367218 153.000122,388.964020   C153.000122,385.821716 153.000122,384.220215 153.000122,382.618744   C153.000168,363.619385 152.885315,344.618713 153.104965,325.621918   C153.145050,322.155426 153.660950,318.117798 155.486755,315.354370   C161.480118,306.283264 167.939362,297.488861 174.687302,288.958099   C179.282166,283.149292 185.594299,280.451904 193.287964,280.899597   C197.337769,281.135284 201.468124,280.489716 205.526688,279.967041   C213.752655,278.907684 223.208099,269.774658 223.899414,261.523132   C224.671234,252.310440 225.198776,243.012085 224.841827,233.789352   C224.517990,225.422379 221.392380,217.556320 213.551865,213.465317   C208.826843,210.999939 203.134140,209.278580 197.844559,209.193420   C171.518951,208.769623 145.182816,209.008743 118.850426,208.978424   C117.227097,208.976547 115.530891,208.913528 113.992729,208.458908   C102.947998,205.194565 97.607651,196.354904 96.809959,183.544052   C96.150078,172.946594 109.039818,160.052551 119.298531,160.841934   C128.907959,161.581345 138.619019,161.001282 148.285355,160.999802   C158.186295,160.998276 160.999207,158.130264 160.999924,148.037766   C161.000778,136.204834 160.999863,124.371918 161.000214,112.538994   C161.000626,99.251900 169.990814,89.752617 183.277512,88.999519   C188.815674,88.685616 192.715805,85.797974 192.865433,80.542892   C193.219131,68.120445 192.979034,55.681091 192.979034,43.111889   C73.038467,78.277603 3.776833,209.126724 45.672867,329.000092   C48.576328,329.000092 51.565559,329.000092 55.537468,329.000092  M363.492096,344.999908   C354.830750,344.999969 346.169220,344.963806 337.508179,345.014221   C332.663055,345.042450 327.644714,348.099487 327.048920,351.510468   C325.929901,357.916779 324.983521,364.353638 324.000458,370.783173   C322.005585,383.830444 313.404144,393.475922 299.118134,393.050934   C289.965271,392.778656 280.797272,392.957794 271.637115,393.045074   C270.252625,393.058258 268.541077,393.263977 267.543274,394.073700   C255.994415,403.445587 244.548752,412.944733 233.087723,422.424683   C229.399109,425.475739 228.337540,428.958069 230.787109,433.459106   C233.504257,438.451782 236.119019,443.541107 238.230820,448.807922   C239.646988,452.339813 240.639465,456.219757 240.882614,460.004303   C241.304718,466.574280 240.999878,473.191010 240.999878,479.841797   C277.914795,482.547150 312.729156,476.411835 345.992188,461.934265   C379.480957,447.358490 407.664795,425.653229 430.657166,397.297577   C428.066833,395.351227 425.739319,393.274017 423.111115,391.698517   C418.212524,388.762054 414.136963,383.911102 407.436127,384.974640   C397.057281,386.621979 383.564240,373.007050 384.951538,362.636993   C385.279877,360.182495 385.060455,357.644806 384.988007,355.148468   C384.801331,348.718781 381.363953,345.212677 374.980225,345.019196   C371.485596,344.913269 367.985138,345.000031 363.492096,344.999908  M348.344269,53.054626   C331.953339,45.767273 314.931763,40.562607 297.001984,37.143749   C297.001984,56.898281 296.900513,76.218483 297.062073,95.536484   C297.112396,101.554848 300.940796,104.867294 307.213135,104.979309   C312.710754,105.077492 318.239624,104.666161 323.700317,105.125710   C326.968964,105.400787 330.455719,106.354713 333.285522,107.977936   C342.916138,113.502304 346.013092,122.270950 345.061859,133.031509   C344.379730,140.747772 348.024536,144.928009 356.198578,145.052368   C362.072784,145.141724 368.809875,150.364243 369.845123,155.868256   C371.199799,163.070496 371.926483,170.388992 373.014282,177.643845   C374.002747,184.235901 374.948059,190.844284 376.315643,197.360840   C376.573730,198.590607 378.678711,200.143982 380.017822,200.231873   C381.307434,200.316498 383.113617,198.972488 383.947296,197.748398   C384.779572,196.526306 384.943054,194.676849 384.957916,193.098267   C385.044281,183.933456 384.931427,174.766785 385.019104,165.602005   C385.112946,155.797302 395.906281,145.530289 405.706238,144.887680   C414.493469,144.311493 420.920471,149.466431 427.831055,153.113510   C442.045715,160.615356 448.868439,172.909546 449.042511,189.021301   C449.129913,197.114044 449.456512,205.216919 450.037598,213.289093   C451.413574,232.403824 465.747833,241.266434 480.512024,251.492874   C479.941101,244.742355 479.410339,239.207352 479.016235,233.662659   C477.972931,218.983856 474.705109,204.744110 470.310913,190.767624   C462.907806,167.220932 451.793335,145.591217 437.312256,125.525261   C426.025421,109.885452 412.796051,96.170128 398.156769,83.877136   C383.308868,71.408951 366.671661,61.519913 348.344269,53.054626  z"
   id="path2" />




</svg>
